<svg xmlns="http://www.w3.org/2000/svg" width="1280" height="820" viewBox="0 0 1280 820">
  <rect width="1280" height="820" fill="#ffffff"/>
  <style>.title{font:700 30px Arial;fill:#172033}.subtitle{font:15px Arial;fill:#526071}.axis{stroke:#a8b1bd;stroke-width:1}.bar1{fill:#2b6cb0}.bar2{fill:#1f7a6d}.bar3{fill:#d97706}.label{font:15px Arial;fill:#172033}.small{font:12px Arial;fill:#526071}.value{font:700 13px Arial;fill:#172033}.panel{fill:#f7f9fc;stroke:#d8dee9;stroke-width:1;rx:8}.metric{font:700 24px Arial;fill:#172033}</style>
  <text x="40" y="45" class="title">Updated Business Charts - Current Warehouse Risk Snapshot</text>
  <text x="40" y="72" class="subtitle">Source: data/olap_warehouse.db, table flight_risk_scores joined with v_ml_features. Scored employees: 1,489.</text>

  <rect x="50" y="105" width="360" height="115" class="panel"/><text x="75" y="140" class="small">Average 12M Risk</text><text x="75" y="180" class="metric">49.19%</text>
  <rect x="460" y="105" width="360" height="115" class="panel"/><text x="485" y="140" class="small">High-Risk Employees (&gt;=30%)</text><text x="485" y="180" class="metric">809 / 1,489</text>
  <rect x="870" y="105" width="360" height="115" class="panel"/><text x="895" y="140" class="small">Largest Department</text><text x="895" y="180" class="metric">R&amp;D</text>

  <rect x="50" y="260" width="560" height="240" class="panel"/>
  <text x="75" y="293" class="label">Average Leave Probability by Time Horizon</text>
  <line x1="95" y1="455" x2="555" y2="455" class="axis"/><line x1="95" y1="325" x2="95" y2="455" class="axis"/>
  <rect x="140" y="369" width="70" height="86" class="bar1"/><text x="141" y="360" class="value">32.88%</text><text x="155" y="477" class="small">1M</text>
  <rect x="250" y="355" width="70" height="100" class="bar1"/><text x="251" y="346" class="value">38.22%</text><text x="265" y="477" class="small">3M</text>
  <rect x="360" y="343" width="70" height="112" class="bar1"/><text x="361" y="334" class="value">43.17%</text><text x="375" y="477" class="small">6M</text>
  <rect x="470" y="327" width="70" height="128" class="bar1"/><text x="471" y="318" class="value">49.19%</text><text x="482" y="477" class="small">12M</text>

  <rect x="670" y="260" width="560" height="240" class="panel"/>
  <text x="695" y="293" class="label">High-Risk Share at 30% Threshold</text>
  <circle cx="815" cy="390" r="78" fill="#e5edf8"/><path d="M815 390 L815 312 A78 78 0 1 1 793 465 Z" fill="#d97706"/><circle cx="815" cy="390" r="44" fill="#ffffff"/>
  <text x="786" y="387" class="value">809</text><text x="774" y="407" class="small">High Risk</text>
  <rect x="945" y="345" width="18" height="18" fill="#d97706"/><text x="973" y="360" class="small">High risk: 809 employees</text>
  <rect x="945" y="380" width="18" height="18" fill="#e5edf8"/><text x="973" y="395" class="small">Below threshold: 680 employees</text>
  <text x="945" y="435" class="small">High-risk share: 54.3%</text>

  <rect x="50" y="545" width="560" height="230" class="panel"/>
  <text x="75" y="578" class="label">Active Employees by Department</text>
  <line x1="95" y1="725" x2="555" y2="725" class="axis"/>
  <rect x="135" y="595" width="85" height="130" class="bar2"/><text x="145" y="586" class="value">975</text><text x="145" y="747" class="small">R&amp;D</text>
  <rect x="285" y="665" width="85" height="60" class="bar2"/><text x="295" y="656" class="value">451</text><text x="292" y="747" class="small">Sales</text>
  <rect x="435" y="717" width="85" height="8" class="bar2"/><text x="450" y="708" class="value">63</text><text x="405" y="747" class="small">Human Resources</text>

  <rect x="670" y="545" width="560" height="230" class="panel"/>
  <text x="695" y="578" class="label">Average 12-Month Risk by Department</text>
  <line x1="715" y1="725" x2="1175" y2="725" class="axis"/>
  <rect x="750" y="594" width="90" height="131" class="bar3"/><text x="748" y="585" class="value">50.62%</text><text x="724" y="747" class="small">Human Resources</text>
  <rect x="910" y="597" width="90" height="128" class="bar3"/><text x="908" y="588" class="value">49.65%</text><text x="936" y="747" class="small">R&amp;D</text>
  <rect x="1070" y="602" width="90" height="123" class="bar3"/><text x="1068" y="593" class="value">48.00%</text><text x="1092" y="747" class="small">Sales</text>
</svg>
